<mxfile host="app.diagrams.net" modified="2023-06-13T01:44:00.640Z" agent="Mozilla/5.0 (Windows NT 10.0; Win64; x64) AppleWebKit/537.36 (KHTML, like Gecko) Chrome/114.0.0.0 Safari/537.36 Edg/114.0.1823.43" etag="J-hkDMbJmDWdU4kfo2ni" version="21.3.6" type="github">
  <diagram name="第 1 页" id="VsvBVxYAbqgpgvzQOxOY">
    <mxGraphModel dx="569" dy="309" grid="1" gridSize="10" guides="1" tooltips="1" connect="1" arrows="1" fold="1" page="1" pageScale="1" pageWidth="827" pageHeight="1169" math="0" shadow="0">
      <root>
        <mxCell id="0" />
        <mxCell id="1" parent="0" />
        <mxCell id="umO30QBN09zoK_80U7y_-31" value="HuaweiCloud" style="whiteSpace=wrap;strokeWidth=2;verticalAlign=top;" vertex="1" parent="1">
          <mxGeometry x="759" y="20" width="181" height="625" as="geometry" />
        </mxCell>
        <mxCell id="umO30QBN09zoK_80U7y_-32" value="IoTPlatform" style="whiteSpace=wrap;strokeWidth=2;verticalAlign=top;" vertex="1" parent="1">
          <mxGeometry x="784" y="40" width="131" height="585" as="geometry" />
        </mxCell>
        <mxCell id="umO30QBN09zoK_80U7y_-33" value="数据存储" style="whiteSpace=wrap;strokeWidth=2;" vertex="1" parent="1">
          <mxGeometry x="809" y="296" width="81" height="33" as="geometry" />
        </mxCell>
        <mxCell id="umO30QBN09zoK_80U7y_-34" value="数据分析" style="whiteSpace=wrap;strokeWidth=2;" vertex="1" parent="1">
          <mxGeometry x="809" y="75" width="81" height="33" as="geometry" />
        </mxCell>
        <mxCell id="umO30QBN09zoK_80U7y_-35" value="Software" style="whiteSpace=wrap;strokeWidth=2;verticalAlign=top;" vertex="1" parent="1">
          <mxGeometry x="20" y="26" width="689" height="359" as="geometry" />
        </mxCell>
        <mxCell id="umO30QBN09zoK_80U7y_-36" value="VehicleControl" style="whiteSpace=wrap;strokeWidth=2;verticalAlign=top;" vertex="1" parent="1">
          <mxGeometry x="256" y="112" width="161" height="153" as="geometry" />
        </mxCell>
        <mxCell id="umO30QBN09zoK_80U7y_-37" value="DataAnalysis" style="whiteSpace=wrap;strokeWidth=2;verticalAlign=top;" vertex="1" parent="1">
          <mxGeometry x="467" y="178" width="217" height="187" as="geometry" />
        </mxCell>
        <mxCell id="umO30QBN09zoK_80U7y_-38" value="RemoteControl" style="whiteSpace=wrap;strokeWidth=2;verticalAlign=top;" vertex="1" parent="1">
          <mxGeometry x="45" y="46" width="161" height="183" as="geometry" />
        </mxCell>
        <mxCell id="umO30QBN09zoK_80U7y_-39" value="手机应用程序" style="whiteSpace=wrap;strokeWidth=2;" vertex="1" parent="1">
          <mxGeometry x="70" y="141" width="111" height="33" as="geometry" />
        </mxCell>
        <mxCell id="umO30QBN09zoK_80U7y_-40" value="甲烷浓度分析程序" style="whiteSpace=wrap;strokeWidth=2;" vertex="1" parent="1">
          <mxGeometry x="504" y="296" width="143" height="33" as="geometry" />
        </mxCell>
        <mxCell id="umO30QBN09zoK_80U7y_-41" value="控制决策模块" style="whiteSpace=wrap;strokeWidth=2;" vertex="1" parent="1">
          <mxGeometry x="520" y="213" width="111" height="33" as="geometry" />
        </mxCell>
        <mxCell id="umO30QBN09zoK_80U7y_-42" value="车辆控制程序" style="whiteSpace=wrap;strokeWidth=2;" vertex="1" parent="1">
          <mxGeometry x="281" y="177" width="111" height="33" as="geometry" />
        </mxCell>
        <mxCell id="umO30QBN09zoK_80U7y_-43" value="Hardware" style="whiteSpace=wrap;strokeWidth=2;verticalAlign=top;" vertex="1" parent="1">
          <mxGeometry x="20" y="404" width="689" height="267" as="geometry" />
        </mxCell>
        <mxCell id="umO30QBN09zoK_80U7y_-44" value="Vehicle" style="whiteSpace=wrap;strokeWidth=2;verticalAlign=top;" vertex="1" parent="1">
          <mxGeometry x="45" y="424" width="639" height="103" as="geometry" />
        </mxCell>
        <mxCell id="umO30QBN09zoK_80U7y_-45" value="Communication" style="whiteSpace=wrap;strokeWidth=2;verticalAlign=top;" vertex="1" parent="1">
          <mxGeometry x="467" y="548" width="217" height="103" as="geometry" />
        </mxCell>
        <mxCell id="umO30QBN09zoK_80U7y_-46" value="Air820UG NB-IoT模组" style="whiteSpace=wrap;strokeWidth=2;" vertex="1" parent="1">
          <mxGeometry x="492" y="583" width="167" height="33" as="geometry" />
        </mxCell>
        <mxCell id="umO30QBN09zoK_80U7y_-47" value="自动驾驶相关传感器模块" style="whiteSpace=wrap;strokeWidth=2;" vertex="1" parent="1">
          <mxGeometry x="78" y="459" width="95" height="33" as="geometry" />
        </mxCell>
        <mxCell id="umO30QBN09zoK_80U7y_-48" value="车辆运动控制执行器" style="whiteSpace=wrap;strokeWidth=2;" vertex="1" parent="1">
          <mxGeometry x="544" y="459" width="116" height="41" as="geometry" />
        </mxCell>
        <mxCell id="umO30QBN09zoK_80U7y_-49" value="" style="curved=1;startArrow=none;endArrow=block;exitX=1;exitY=0.2332581897565426;entryX=0.45460546598189255;entryY=1.003030372388435;rounded=0;" edge="1" parent="1" source="umO30QBN09zoK_80U7y_-47" target="umO30QBN09zoK_80U7y_-42">
          <mxGeometry relative="1" as="geometry">
            <Array as="points">
              <mxPoint x="206" y="460" />
              <mxPoint x="256" y="460" />
            </Array>
          </mxGeometry>
        </mxCell>
        <mxCell id="umO30QBN09zoK_80U7y_-50" value="" style="curved=1;startArrow=none;endArrow=block;exitX=0.8378315672438407;exitY=-0.009090885971531723;entryX=0.4068131063485936;entryY=0.010606187762636127;rounded=0;" edge="1" parent="1" source="umO30QBN09zoK_80U7y_-42" target="umO30QBN09zoK_80U7y_-48">
          <mxGeometry relative="1" as="geometry">
            <Array as="points">
              <mxPoint x="417" y="158" />
              <mxPoint x="467" y="158" />
            </Array>
          </mxGeometry>
        </mxCell>
        <mxCell id="umO30QBN09zoK_80U7y_-52" value="" style="curved=1;startArrow=none;endArrow=block;exitX=1.001660860501803;exitY=0.5045455585826527;entryX=0.005864272882908951;entryY=0.5045455585826527;rounded=0;" edge="1" parent="1" source="umO30QBN09zoK_80U7y_-40" target="umO30QBN09zoK_80U7y_-33">
          <mxGeometry relative="1" as="geometry">
            <Array as="points" />
          </mxGeometry>
        </mxCell>
        <mxCell id="umO30QBN09zoK_80U7y_-53" value="" style="curved=1;startArrow=none;endArrow=block;exitX=0.8378315672438407;exitY=1.003030372388435;entryX=0.0021396671329532656;entryY=0.49242430022268585;rounded=0;" edge="1" parent="1" source="umO30QBN09zoK_80U7y_-42" target="umO30QBN09zoK_80U7y_-41">
          <mxGeometry relative="1" as="geometry">
            <Array as="points">
              <mxPoint x="417" y="229" />
            </Array>
          </mxGeometry>
        </mxCell>
        <mxCell id="umO30QBN09zoK_80U7y_-54" value="" style="curved=1;startArrow=none;endArrow=block;exitX=1.0021396671329532;exitY=0.49242430022268585;entryX=0.3419672304048716;entryY=-0.0015150705973307292;rounded=0;" edge="1" parent="1" source="umO30QBN09zoK_80U7y_-41" target="umO30QBN09zoK_80U7y_-33">
          <mxGeometry relative="1" as="geometry">
            <Array as="points">
              <mxPoint x="784" y="229" />
            </Array>
          </mxGeometry>
        </mxCell>
        <mxCell id="umO30QBN09zoK_80U7y_-55" value="" style="curved=1;startArrow=none;endArrow=block;exitX=0.6839219703022557;exitY=-0.0045454429857658615;entryX=0.005864272882908951;entryY=0.5060606291799834;rounded=0;" edge="1" parent="1" source="umO30QBN09zoK_80U7y_-39" target="umO30QBN09zoK_80U7y_-34">
          <mxGeometry relative="1" as="geometry">
            <Array as="points">
              <mxPoint x="206" y="92" />
            </Array>
          </mxGeometry>
        </mxCell>
        <mxCell id="umO30QBN09zoK_80U7y_-56" value="" style="curved=1;startArrow=none;endArrow=block;exitX=1.0028443479252434;exitY=0.4984850449995561;entryX=0.456452705296511;entryY=1.0106061877626362;rounded=0;" edge="1" parent="1" source="umO30QBN09zoK_80U7y_-46" target="umO30QBN09zoK_80U7y_-33">
          <mxGeometry relative="1" as="geometry">
            <Array as="points">
              <mxPoint x="784" y="599" />
            </Array>
          </mxGeometry>
        </mxCell>
        <mxCell id="umO30QBN09zoK_80U7y_-57" value="" style="curved=1;startArrow=none;endArrow=block;exitX=0.8378315672438407;exitY=1.007575815374201;entryX=0;entryY=0.4969697432084517;rounded=0;" edge="1" parent="1" source="umO30QBN09zoK_80U7y_-39" target="umO30QBN09zoK_80U7y_-42">
          <mxGeometry relative="1" as="geometry">
            <Array as="points">
              <mxPoint x="206" y="193" />
            </Array>
          </mxGeometry>
        </mxCell>
        <mxCell id="umO30QBN09zoK_80U7y_-58" value="甲烷浓度传感器" style="whiteSpace=wrap;strokeWidth=2;" vertex="1" parent="1">
          <mxGeometry x="240" y="469" width="110" height="33" as="geometry" />
        </mxCell>
        <mxCell id="umO30QBN09zoK_80U7y_-61" value="" style="curved=1;endArrow=classic;html=1;rounded=0;exitX=1;exitY=0.5;exitDx=0;exitDy=0;entryX=0.5;entryY=1;entryDx=0;entryDy=0;" edge="1" parent="1" source="umO30QBN09zoK_80U7y_-58" target="umO30QBN09zoK_80U7y_-40">
          <mxGeometry width="50" height="50" relative="1" as="geometry">
            <mxPoint x="490" y="410" as="sourcePoint" />
            <mxPoint x="540" y="360" as="targetPoint" />
            <Array as="points">
              <mxPoint x="540" y="410" />
              <mxPoint x="490" y="360" />
            </Array>
          </mxGeometry>
        </mxCell>
      </root>
    </mxGraphModel>
  </diagram>
</mxfile>
